<svg width="122" height="122" viewBox="0 0 122 122" fill="none" xmlns="http://www.w3.org/2000/svg">
<path d="M60.7683 0C27.3457 0 0 27.3457 0 60.7683C0 94.1908 27.3457 121.537 60.7683 121.537C77.4795 121.537 92.9755 115.004 103.914 103.914L92.9755 92.9755C84.7717 101.179 73.3777 106.344 60.6164 106.344C35.3975 106.344 15.0401 85.9871 15.0401 60.7683C15.0401 35.5494 35.3975 15.1921 60.6164 15.1921C73.2258 15.1921 84.1641 20.6612 92.3678 29.0168L75.8084 45.5762H121.385V0L103.306 18.0786C92.3678 7.14027 77.3276 0 60.6164 0H60.7683Z" fill="black"/>
</svg>
