<svg width="102" height="102" viewBox="0 0 102 102" fill="none" xmlns="http://www.w3.org/2000/svg">
<path d="M44.5562 0L38.2091 15.1059C36.9397 15.4868 35.7973 16.1215 34.6548 16.7562L19.5489 10.4091L10.4091 19.5489L16.7562 34.6548C16.1215 35.9242 15.6137 36.9397 15.1059 38.2091L0 44.5562V57.2503L15.1059 63.5973C15.6137 64.8667 16.1215 65.8822 16.7562 67.1516L10.4091 82.2576L19.5489 91.3973L34.6548 85.0503C35.7973 85.558 36.9397 86.1927 38.2091 86.7005L44.5562 101.806H57.2503L63.5973 86.7005C64.7398 86.1927 66.0092 85.685 67.1516 85.0503L82.2576 91.3973L91.3973 82.2576L85.0503 67.1516C85.558 66.0092 86.1927 64.7398 86.7005 63.5973L101.806 57.2503V44.5562L86.7005 38.2091C86.3197 37.0667 85.685 35.7973 85.0503 34.6548L91.3973 19.5489L82.2576 10.4091L67.1516 16.7562C66.0092 16.2484 64.7398 15.6137 63.5973 15.1059L57.2503 0L44.5562 0ZM50.9032 31.7352C61.4393 31.7352 69.9443 40.2402 69.9443 50.7763C69.9443 61.3124 61.4393 69.8174 50.9032 69.8174C40.3671 69.8174 31.8621 61.3124 31.8621 50.7763C31.8621 40.2402 40.3671 31.7352 50.9032 31.7352Z" fill="black"/>
</svg>
